<svg width="512" height="512" viewBox="0 0 512 512" fill="none" xmlns="http://www.w3.org/2000/svg">
<g clip-path="url(#clip0_2263_19)">
<path d="M477.867 0H34.1333C25.0806 0 16.3987 3.59618 9.99742 9.99742C3.59618 16.3987 0 25.0806 0 34.1333L0 375.467C0 384.519 3.59618 393.201 9.99742 399.603C16.3987 406.004 25.0806 409.6 34.1333 409.6H204.459C201.122 450.458 173.875 452.207 170.59 452.267H162.133C153.081 452.267 144.399 455.863 137.997 462.264C131.596 468.665 128 477.347 128 486.4V494.933C128 499.46 129.798 503.801 132.999 507.001C136.199 510.202 140.54 512 145.067 512H366.933C371.46 512 375.801 510.202 379.001 507.001C382.202 503.801 384 499.46 384 494.933V486.4C384 477.347 380.404 468.665 374.003 462.264C367.601 455.863 358.919 452.267 349.867 452.267H341.333C340.028 452.267 311.023 451.729 307.55 409.6H477.867C486.919 409.6 495.601 406.004 502.003 399.603C508.404 393.201 512 384.519 512 375.467V34.1333C512 25.0806 508.404 16.3987 502.003 9.99742C495.601 3.59618 486.919 0 477.867 0ZM34.1333 17.0667H477.867C482.393 17.0667 486.734 18.8648 489.935 22.0654C493.135 25.266 494.933 29.607 494.933 34.1333V341.333H17.0667V34.1333C17.0667 29.607 18.8648 25.266 22.0654 22.0654C25.266 18.8648 29.607 17.0667 34.1333 17.0667ZM349.867 469.333C354.393 469.333 358.734 471.131 361.935 474.332C365.135 477.533 366.933 481.874 366.933 486.4V494.933H145.067V486.4C145.067 481.874 146.865 477.533 150.065 474.332C153.266 471.131 157.607 469.333 162.133 469.333H349.867ZM306.159 452.267H205.841C215.676 440.193 221.175 425.169 221.457 409.6H290.577C290.85 425.165 296.337 440.189 306.159 452.267ZM477.867 392.533H34.1333C29.607 392.533 25.266 390.735 22.0654 387.535C18.8648 384.334 17.0667 379.993 17.0667 375.467V358.4H494.933V375.467C494.933 379.993 493.135 384.334 489.935 387.535C486.734 390.735 482.393 392.533 477.867 392.533Z" fill="white"/>
<path d="M51.2 324.267H460.8C465.326 324.267 469.667 322.469 472.868 319.268C476.069 316.067 477.867 311.726 477.867 307.2V51.2C477.867 46.6736 476.069 42.3326 472.868 39.132C469.667 35.9314 465.326 34.1333 460.8 34.1333H51.2C46.6736 34.1333 42.3326 35.9314 39.132 39.132C35.9314 42.3326 34.1333 46.6736 34.1333 51.2V307.2C34.1333 311.726 35.9314 316.067 39.132 319.268C42.3326 322.469 46.6736 324.267 51.2 324.267ZM51.2 51.2H460.8V307.2H51.2V51.2Z" fill="white"/>
<path d="M267.034 70.7669L70.767 267.034C69.952 267.821 69.3019 268.762 68.8547 269.803C68.4074 270.845 68.172 271.964 68.1622 273.097C68.1523 274.23 68.3683 275.354 68.7973 276.403C69.2264 277.451 69.86 278.404 70.6612 279.205C71.4624 280.007 72.4152 280.64 73.4639 281.069C74.5126 281.498 75.6363 281.714 76.7693 281.704C77.9024 281.695 79.0221 281.459 80.0632 281.012C81.1043 280.565 82.046 279.915 82.8331 279.1L279.1 82.833C280.654 81.2236 281.514 79.0681 281.495 76.8306C281.475 74.5932 280.578 72.453 278.996 70.8708C277.414 69.2887 275.273 68.3912 273.036 68.3718C270.799 68.3523 268.643 69.2125 267.034 70.7669Z" fill="white"/>
<path d="M76.8001 196.267C79.0631 196.266 81.2332 195.367 82.8331 193.766L193.766 82.833C195.321 81.2236 196.181 79.0681 196.162 76.8306C196.142 74.5932 195.245 72.453 193.663 70.8708C192.08 69.2887 189.94 68.3912 187.703 68.3718C185.465 68.3523 183.31 69.2125 181.7 70.7669L70.767 181.7C69.574 182.894 68.7615 184.414 68.4324 186.069C68.1033 187.724 68.2723 189.44 68.918 190.999C69.5637 192.558 70.6572 193.89 72.0602 194.828C73.4631 195.766 75.1126 196.266 76.8001 196.267Z" fill="white"/>
<path d="M76.8001 110.933C79.0631 110.933 81.2332 110.033 82.8331 108.433L108.433 82.833C109.988 81.2236 110.848 79.0681 110.828 76.8306C110.809 74.5932 109.911 72.453 108.329 70.8708C106.747 69.2887 104.607 68.3912 102.369 68.3718C100.132 68.3523 97.9764 69.2125 96.367 70.7669L70.767 96.3669C69.574 97.5603 68.7615 99.0806 68.4324 100.736C68.1033 102.391 68.2723 104.106 68.918 105.665C69.5637 107.224 70.6572 108.557 72.0602 109.495C73.4631 110.432 75.1126 110.933 76.8001 110.933Z" fill="white"/>
</g>
<defs>
<clipPath id="clip0_2263_19">
<rect width="512" height="512" fill="white"/>
</clipPath>
</defs>
</svg>
