<svg width="512" height="512" viewBox="0 0 512 512" fill="none" xmlns="http://www.w3.org/2000/svg">
<path d="M38.4231 340.487C39.9851 344.62 37.9021 349.237 33.7691 350.799C32.8371 351.151 31.8811 351.318 30.9411 351.318C27.7111 351.318 24.6681 349.347 23.4571 346.145C5.7711 299.368 3.1371 248.947 15.8401 200.332C28.8061 150.708 56.7601 107.329 96.6821 74.884C121.846 54.433 150.929 39.287 181.847 30.391L169.931 26.163C165.768 24.685 163.59 20.112 165.068 15.948C166.545 11.784 171.118 9.60601 175.283 11.084L213.296 24.573C215.691 25.423 217.539 27.36 218.276 29.792C219.013 32.224 218.55 34.861 217.031 36.898L192.502 69.756C190.931 71.86 188.523 72.971 186.085 72.971C184.42 72.971 182.741 72.453 181.305 71.381C177.765 68.738 177.037 63.725 179.68 60.185L191.499 44.352C160.698 52.404 131.68 67.058 106.774 87.299C31.7021 148.312 4.2341 250.06 38.4231 340.487ZM432.887 402.104C429.47 399.302 424.431 399.799 421.628 403.216C412.085 414.851 401.275 425.603 389.5 435.173C299.333 508.452 171.156 501.031 90.3201 420.427L106.717 423.455C111.059 424.255 115.235 421.384 116.036 417.04C116.838 412.695 113.967 408.522 109.621 407.72L69.9571 400.396C67.4601 399.938 64.8901 400.688 63.0341 402.426C61.1801 404.164 60.2621 406.679 60.5601 409.202L65.3731 449.923C65.8531 453.992 69.3091 456.985 73.3081 456.985C73.6201 456.985 73.9381 456.967 74.2571 456.929C78.6451 456.41 81.7801 452.433 81.2621 448.045L79.3751 432.078C118.983 471.322 170.668 495.41 226.826 500.421C234.072 501.067 241.292 501.388 248.486 501.388C303.464 501.388 356.443 482.657 399.59 447.59C412.197 437.344 423.774 425.828 433.997 413.363C436.801 409.947 436.303 404.906 432.887 402.104ZM502.087 311.936C499.219 308.574 494.169 308.172 490.809 311.04L481.146 319.281C489.038 287.46 490.407 254.145 485.042 221.753C478.268 180.856 460.787 142.136 434.492 109.781C397.382 64.12 344.98 33.752 286.94 24.268C282.577 23.56 278.468 26.513 277.754 30.873C277.042 35.233 279.999 39.346 284.359 40.058C338.529 48.909 387.437 77.254 422.075 119.871C468.241 176.676 483.553 250.723 464.277 320.634L456.47 302.469C454.726 298.41 450.024 296.531 445.961 298.279C441.902 300.024 440.025 304.728 441.771 308.788L457.962 346.46C458.965 348.794 461.019 350.514 463.493 351.091C464.096 351.232 464.705 351.3 465.311 351.3C467.194 351.3 469.04 350.634 470.502 349.387L501.19 323.212C504.553 320.347 504.954 315.297 502.087 311.936ZM218.427 94.003C219.615 90.914 222.583 88.877 225.893 88.877H270.379C273.689 88.877 276.656 90.915 277.845 94.003L286.838 117.37C299.318 120.72 311.274 125.676 322.483 132.146L345.38 121.977C348.406 120.634 351.943 121.292 354.284 123.632L385.74 155.09C388.08 157.43 388.737 160.969 387.394 163.994L377.22 186.898C383.691 198.108 388.646 210.06 391.994 222.531L415.367 231.528C418.455 232.717 420.493 235.685 420.493 238.994V283.48C420.493 286.79 418.455 289.757 415.367 290.946L392.001 299.94C388.65 312.42 383.694 324.376 377.224 335.585L387.394 358.481C388.737 361.505 388.08 365.045 385.739 367.385L354.282 398.841C351.941 401.181 348.403 401.837 345.379 400.496L322.474 390.323C311.266 396.792 299.314 401.748 286.841 405.096L277.844 428.469C276.656 431.557 273.688 433.595 270.378 433.595H225.892C222.582 433.595 219.615 431.557 218.426 428.469L209.433 405.103C196.954 401.753 184.997 396.797 173.788 390.327L150.892 400.496C147.867 401.839 144.329 401.181 141.988 398.841L110.531 367.383C108.191 365.043 107.534 361.504 108.877 358.479L119.051 335.575C112.58 324.365 107.625 312.413 104.277 299.942L80.9051 290.945C77.8171 289.756 75.7791 286.788 75.7791 283.479V238.994C75.7791 235.684 77.8171 232.717 80.9051 231.528L104.277 222.531C107.626 210.06 112.581 198.108 119.051 186.898L108.877 163.994C107.534 160.969 108.191 157.43 110.532 155.09L141.99 123.633C144.329 121.292 147.868 120.635 150.893 121.978L173.795 132.149C185.002 125.679 196.956 120.724 209.432 117.375L218.427 94.003ZM217.262 131.894C203.573 135.151 190.54 140.554 178.529 147.951C176.281 149.335 173.496 149.521 171.087 148.451L149.419 138.828L125.73 162.517L135.355 184.186C136.425 186.597 136.239 189.381 134.856 191.628C127.457 203.645 122.054 216.675 118.797 230.359C118.187 232.925 116.351 235.026 113.889 235.973L91.7791 244.484V277.984L113.889 286.495C116.351 287.443 118.187 289.543 118.797 292.109C122.054 305.794 127.456 318.825 134.856 330.84C136.239 333.087 136.425 335.871 135.355 338.282L125.73 359.951L149.418 383.64L171.08 374.019C173.489 372.949 176.274 373.135 178.522 374.519C190.536 381.917 203.57 387.321 217.263 390.579C219.829 391.19 221.93 393.026 222.877 395.488L231.385 417.592H264.885L273.397 395.481C274.344 393.02 276.445 391.183 279.01 390.572C292.697 387.315 305.727 381.912 317.741 374.514C319.987 373.131 322.773 372.945 325.182 374.014L346.853 383.639L370.541 359.951L360.92 338.289C359.85 335.878 360.036 333.093 361.42 330.847C368.817 318.835 374.221 305.801 377.481 292.106C378.091 289.54 379.927 287.439 382.389 286.492L404.493 277.984V244.484L382.383 235.973C379.921 235.026 378.085 232.926 377.475 230.36C374.217 216.676 368.815 203.645 361.415 191.629C360.032 189.382 359.846 186.599 360.916 184.187L370.541 162.517L346.853 138.828L325.19 148.449C322.781 149.518 319.996 149.333 317.748 147.949C305.735 140.551 292.701 135.148 279.007 131.889C276.441 131.278 274.34 129.442 273.393 126.98L264.885 104.876H231.385L222.875 126.984C221.929 129.447 219.828 131.283 217.262 131.894ZM248.136 156.461C305.908 156.461 352.909 203.462 352.909 261.235C352.909 319.007 305.908 366.009 248.136 366.009C190.364 366.009 143.362 319.008 143.362 261.235C143.361 203.462 190.363 156.461 248.136 156.461ZM159.361 261.235C159.361 310.185 199.185 350.009 248.135 350.009C297.085 350.009 336.908 310.185 336.908 261.235C336.908 212.285 297.085 172.461 248.135 172.461C199.185 172.461 159.361 212.285 159.361 261.235ZM236.08 306.229C236.773 306.415 237.47 306.503 238.155 306.503C241.687 306.503 244.92 304.146 245.878 300.571L265.849 226.039C266.993 221.771 264.459 217.385 260.192 216.241C255.93 215.099 251.538 217.631 250.394 221.898L230.423 296.429C229.279 300.699 231.812 305.085 236.08 306.229ZM180.906 267.353L213.447 294.774C214.948 296.039 216.778 296.656 218.598 296.656C220.875 296.656 223.137 295.689 224.719 293.811C227.567 290.432 227.136 285.385 223.757 282.538L198.476 261.234L223.757 239.931C227.136 237.084 227.567 232.037 224.719 228.658C221.871 225.279 216.824 224.848 213.447 227.696L180.906 255.117C179.102 256.637 178.061 258.876 178.061 261.235C178.061 263.594 179.103 265.833 180.906 267.353ZM271.553 293.812C273.135 295.69 275.397 296.657 277.674 296.657C279.494 296.657 281.324 296.039 282.825 294.775L315.365 267.354C317.169 265.834 318.21 263.595 318.21 261.236C318.21 258.877 317.169 256.638 315.365 255.118L282.825 227.697C279.446 224.85 274.399 225.281 271.553 228.659C268.705 232.038 269.136 237.085 272.515 239.932L297.795 261.235L272.515 282.539C269.136 285.386 268.705 290.433 271.553 293.812Z" fill="white"/>
</svg>
