<svg width="512" height="512" viewBox="0 0 512 512" fill="none" xmlns="http://www.w3.org/2000/svg">
<path d="M364.42 193.33C350.77 184.28 334.81 142.52 319.36 102.14C307.35 70.73 294.93 38.25 280.9 12.21C280.216 10.9382 279.2 9.87525 277.961 9.13404C276.721 8.39282 275.304 8.00095 273.86 8H238.14C236.696 8.00095 235.279 8.39282 234.039 9.13404C232.8 9.87525 231.784 10.9382 231.1 12.21C217.07 38.25 204.65 70.73 192.64 102.14C177.19 142.52 161.23 184.28 147.58 193.33C146.158 194.274 145.075 195.647 144.488 197.25C143.902 198.853 143.843 200.601 144.32 202.24L190.33 360H188C180.576 360.008 173.459 362.961 168.21 368.21C162.961 373.459 160.008 380.576 160 388V400C160 402.122 160.843 404.157 162.343 405.657C163.843 407.157 165.878 408 168 408V496C168 498.122 168.843 500.157 170.343 501.657C171.843 503.157 173.878 504 176 504H336C338.122 504 340.157 503.157 341.657 501.657C343.157 500.157 344 498.122 344 496V408C346.122 408 348.157 407.157 349.657 405.657C351.157 404.157 352 402.122 352 400V388C351.992 380.576 349.039 373.459 343.79 368.21C338.541 362.961 331.424 360.008 324 360H322.61L367.69 202.2C368.158 200.566 368.093 198.825 367.505 197.23C366.917 195.635 365.837 194.269 364.42 193.33ZM328 488H184V408H328V488ZM324 376C327.182 376.003 330.232 377.268 332.482 379.518C334.732 381.768 335.997 384.818 336 388V392H176V388C176.003 384.818 177.268 381.768 179.518 379.518C181.767 377.268 184.818 376.003 188 376H324ZM305.97 360H207L161.16 202.83C177.11 187.54 191.33 150.34 207.58 107.85C218.76 78.62 230.3 48.44 242.96 24H248V209.01C240.459 210.957 233.886 215.588 229.515 222.034C225.144 228.48 223.274 236.299 224.255 244.026C225.236 251.753 229.002 258.856 234.846 264.005C240.69 269.153 248.211 271.994 256 271.994C263.789 271.994 271.31 269.153 277.154 264.005C282.998 258.856 286.764 251.753 287.745 244.026C288.726 236.299 286.856 228.48 282.485 222.034C278.113 215.588 271.541 210.957 264 209.01V24H269.04C281.7 48.44 293.24 78.62 304.42 107.85C320.67 150.36 334.91 187.58 350.87 202.85L305.97 360ZM256 224C259.164 224 262.258 224.938 264.889 226.696C267.52 228.455 269.571 230.953 270.782 233.877C271.993 236.801 272.31 240.018 271.693 243.121C271.075 246.225 269.551 249.076 267.314 251.314C265.076 253.551 262.225 255.075 259.121 255.693C256.018 256.31 252.801 255.993 249.877 254.782C246.953 253.571 244.455 251.52 242.696 248.889C240.938 246.258 240 243.165 240 240C240.006 235.758 241.693 231.692 244.692 228.692C247.692 225.693 251.758 224.006 256 224Z" fill="white"/>
</svg>
